# xmcd
#
# Track frame offsets:
#	150
#	17065
#	30896
#	48166
#	66866
#	84236
#	106830
#	122162
#	132804
#	149027
#	163303
#	178826
#	189909
#	204751
#	219069
#	235141
#	250068
#	263162
#
# Disc length: 3678 seconds
#
# Revision: 2
# Processed by: cddbd v1.5.2PL0 Copyright (c) Steve Scherf et al.
# Submitted via: audiograbber 1.83.01
#
DISCID=ec0e5c12
DTITLE=Various Artist - The Blues News Collection Vol. 3
DYEAR=2002
DGENRE=Blues
TTITLE0=Red Hot Cancers - Bad Boogie Fever
TTITLE1=Andreas Kilger and Lowdown - Front Porch Blues
TTITLE2=East Blues Experience - Knockin' At Your Window
TTITLE3=Hoochie Coochie Blues Band - Boogie With A Funky Beat
TTITLE4=Edwin Kimmler - Ruma Sambo
TTITLE5=Crimson Alley - You Can't Get Back
TTITLE6=HotShotBluesBand - Hoodoo Shuffle
TTITLE7=Andy Hart - Achterdör
TTITLE8=Georg Schroeter and Ulli Kron - Boogie With A Friend
TTITLE9=Larry O. Moan - History In My Garbagecan
TTITLE10=Blue Breeze - Wish
TTITLE11=Cypress Grove - I'll Turn Your Money Green
TTITLE12=The Silvertones - Tired Man
TTITLE13=Schütze and Stückle - Cinzia
TTITLE14=Boogie Connection - Boogie Woogie Transpiration
TTITLE15=Professor Bottleneck and The Juke Kings - Hellbilly
TTITLE16=Blue Tribe - Help Me
TTITLE17=Bluesoul - Laptop
EXTD=
EXTT0=
EXTT1=
EXTT2=
EXTT3=
EXTT4=
EXTT5=
EXTT6=
EXTT7=
EXTT8=
EXTT9=
EXTT10=
EXTT11=
EXTT12=
EXTT13=
EXTT14=
EXTT15=
EXTT16=
EXTT17=
PLAYORDER=
